RBDS026runT35_grf
version=1
nRows=37
nColumns=19
inDegrees=no
endheader
time	ground_force_r_vx	ground_force_r_vy	ground_force_r_vz	ground_force_r_px	ground_force_r_py	ground_force_r_pz	ground_force_r_mx	ground_force_r_my	ground_force_r_mz	ground_force_l_vx	ground_force_l_vy	ground_force_l_vz	ground_force_l_px	ground_force_l_py	ground_force_l_pz	ground_force_l_mx	ground_force_l_my	ground_force_l_mz
      7.49900000	      0.00000000	      0.00000000	      0.00000000	      0.00000000	      0.00000000	      0.00000000	      0.00000000	      0.00000000	      0.00000000	   -185.82641272	   1945.50552971	     42.57889953	      2.15176670	      0.00000000	      0.90802510	     -0.00000000	     17.43439496	      0.00000000
      7.50000000	      0.00000000	      0.00000000	      0.00000000	      0.00000000	      0.00000000	      0.00000000	      0.00000000	      0.00000000	      0.00000000	   -181.48465674	   1953.17625783	     43.83036753	      2.14887704	      0.00000000	      0.90782593	     -0.00000000	     17.49143898	      0.00000000
      7.50100000	      0.00000000	      0.00000000	      0.00000000	      0.00000000	      0.00000000	      0.00000000	      0.00000000	      0.00000000	      0.00000000	   -176.73542637	   1959.65124501	     45.10258241	      2.14600376	      0.00000000	      0.90761355	     -0.00000000	     17.53532514	      0.00000000
      7.50200000	      0.00000000	      0.00000000	      0.00000000	      0.00000000	      0.00000000	      0.00000000	      0.00000000	      0.00000000	      0.00000000	   -171.98619600	   1966.12623219	     46.37479729	      2.14313047	      0.00000000	      0.90740116	     -0.00000000	     17.57921131	      0.00000000
      7.50300000	      0.00000000	      0.00000000	      0.00000000	      0.00000000	      0.00000000	      0.00000000	      0.00000000	      0.00000000	      0.00000000	   -167.23696563	   1972.60121938	     47.64701218	      2.14025719	      0.00000000	      0.90718878	     -0.00000000	     17.62309747	      0.00000000
      7.50400000	      0.00000000	      0.00000000	      0.00000000	      0.00000000	      0.00000000	      0.00000000	      0.00000000	      0.00000000	      0.00000000	   -162.25191345	   1978.22173003	     48.90783725	      2.13740085	      0.00000000	      0.90697024	     -0.00000000	     17.65789950	      0.00000000
      7.50500000	      0.00000000	      0.00000000	      0.00000000	      0.00000000	      0.00000000	      0.00000000	      0.00000000	      0.00000000	      0.00000000	   -157.14895037	   1983.41500242	     50.16296740	      2.13455300	      0.00000000	      0.90674863	     -0.00000000	     17.68815947	      0.00000000
      7.50600000	      0.00000000	      0.00000000	      0.00000000	      0.00000000	      0.00000000	      0.00000000	      0.00000000	      0.00000000	      0.00000000	   -152.04598728	   1988.60827481	     51.41809756	      2.13170514	      0.00000000	      0.90652702	     -0.00000000	     17.71841944	      0.00000000
      7.50700000	      0.00000000	      0.00000000	      0.00000000	      0.00000000	      0.00000000	      0.00000000	      0.00000000	      0.00000000	      0.00000000	   -146.84256864	   1993.34757739	     52.65523732	      2.12886767	      0.00000000	      0.90630377	     -0.00000000	     17.74399567	      0.00000000
      7.50800000	      0.00000000	      0.00000000	      0.00000000	      0.00000000	      0.00000000	      0.00000000	      0.00000000	      0.00000000	      0.00000000	   -141.43823891	   1997.17894035	     53.85639627	      2.12605099	      0.00000000	      0.90607725	     -0.00000000	     17.76020441	      0.00000000
      7.50900000	      0.00000000	      0.00000000	      0.00000000	      0.00000000	      0.00000000	      0.00000000	      0.00000000	      0.00000000	      0.00000000	   -136.03390917	   2001.01030331	     55.05755523	      2.12323431	      0.00000000	      0.90585073	     -0.00000000	     17.77641315	      0.00000000
      7.51000000	      0.00000000	      0.00000000	      0.00000000	      0.00000000	      0.00000000	      0.00000000	      0.00000000	      0.00000000	      0.00000000	   -130.62957943	   2004.84166627	     56.25871418	      2.12041762	      0.00000000	      0.90562420	     -0.00000000	     17.79262189	      0.00000000
      7.51100000	      0.00000000	      0.00000000	      0.00000000	      0.00000000	      0.00000000	      0.00000000	      0.00000000	      0.00000000	      0.00000000	   -124.97362383	   2007.23996229	     57.37096691	      2.11763461	      0.00000000	      0.90539725	     -0.00000000	     17.79442340	      0.00000000
      7.51200000	      0.00000000	      0.00000000	      0.00000000	      0.00000000	      0.00000000	      0.00000000	      0.00000000	      0.00000000	      0.00000000	   -119.31766823	   2009.63825831	     58.48321964	      2.11485159	      0.00000000	      0.90517030	     -0.00000000	     17.79622490	      0.00000000
      7.51300000	      0.00000000	      0.00000000	      0.00000000	      0.00000000	      0.00000000	      0.00000000	      0.00000000	      0.00000000	      0.00000000	   -113.66171263	   2012.03655434	     59.59547236	      2.11206857	      0.00000000	      0.90494335	     -0.00000000	     17.79802640	      0.00000000
      7.51400000	      0.00000000	      0.00000000	      0.00000000	      0.00000000	      0.00000000	      0.00000000	      0.00000000	      0.00000000	      0.00000000	   -107.86886638	   2013.43982944	     60.62703728	      2.10930760	      0.00000000	      0.90471913	     -0.00000000	     17.79004700	      0.00000000
      7.51500000	      0.00000000	      0.00000000	      0.00000000	      0.00000000	      0.00000000	      0.00000000	      0.00000000	      0.00000000	      0.00000000	   -102.00757481	   2014.34559408	     61.61825829	      2.10655765	      0.00000000	      0.90449627	     -0.00000000	     17.77717715	      0.00000000
      7.51600000	      0.00000000	      0.00000000	      0.00000000	      0.00000000	      0.00000000	      0.00000000	      0.00000000	      0.00000000	      0.00000000	    -96.14628324	   2015.25135872	     62.60947930	      2.10380771	      0.00000000	      0.90427342	     -0.00000000	     17.76430730	      0.00000000
      7.51700000	      0.00000000	      0.00000000	      0.00000000	      0.00000000	      0.00000000	      0.00000000	      0.00000000	      0.00000000	      0.00000000	    -90.23070298	   2015.64434326	     63.55082116	      2.10106765	      0.00000000	      0.90405340	     -0.00000000	     17.74649540	      0.00000000
      7.51800000	      0.00000000	      0.00000000	      0.00000000	      0.00000000	      0.00000000	      0.00000000	      0.00000000	      0.00000000	      0.00000000	    -84.20654537	   2015.01176758	     64.39240473	      2.09834739	      0.00000000	      0.90383906	     -0.00000000	     17.71879941	      0.00000000
      7.51900000	      0.00000000	      0.00000000	      0.00000000	      0.00000000	      0.00000000	      0.00000000	      0.00000000	      0.00000000	      0.00000000	    -78.18238776	   2014.37919190	     65.23398830	      2.09562712	      0.00000000	      0.90362472	     -0.00000000	     17.69110341	      0.00000000
      7.52000000	      0.00000000	      0.00000000	      0.00000000	      0.00000000	      0.00000000	      0.00000000	      0.00000000	      0.00000000	      0.00000000	    -72.15823015	   2013.74661623	     66.07557187	      2.09290685	      0.00000000	      0.90341039	     -0.00000000	     17.66340741	      0.00000000
      7.52100000	      0.00000000	      0.00000000	      0.00000000	      0.00000000	      0.00000000	      0.00000000	      0.00000000	      0.00000000	      0.00000000	    -66.00994571	   2011.54477692	     66.74299727	      2.09021047	      0.00000000	      0.90320879	     -0.00000000	     17.62085014	      0.00000000
      7.52200000	      0.00000000	      0.00000000	      0.00000000	      0.00000000	      0.00000000	      0.00000000	      0.00000000	      0.00000000	      0.00000000	    -59.86166128	   2009.34293761	     67.41042267	      2.08751408	      0.00000000	      0.90300719	     -0.00000000	     17.57829287	      0.00000000
      7.52300000	      0.00000000	      0.00000000	      0.00000000	      0.00000000	      0.00000000	      0.00000000	      0.00000000	      0.00000000	      0.00000000	    -53.71337685	   2007.14109830	     68.07784807	      2.08481770	      0.00000000	      0.90280558	     -0.00000000	     17.53573560	      0.00000000
      7.52400000	      0.00000000	      0.00000000	      0.00000000	      0.00000000	      0.00000000	      0.00000000	      0.00000000	      0.00000000	      0.00000000	    -47.50602402	   2003.88273436	     68.61582857	      2.08213208	      0.00000000	      0.90261508	     -0.00000000	     17.48332962	      0.00000000
      7.52500000	      0.00000000	      0.00000000	      0.00000000	      0.00000000	      0.00000000	      0.00000000	      0.00000000	      0.00000000	      0.00000000	    -41.26913698	   2000.09610810	     69.08908663	      2.07945184	      0.00000000	      0.90243013	     -0.00000000	     17.42599928	      0.00000000
      7.52600000	      0.00000000	      0.00000000	      0.00000000	      0.00000000	      0.00000000	      0.00000000	      0.00000000	      0.00000000	      0.00000000	    -35.03224995	   1996.30948185	     69.56234468	      2.07677161	      0.00000000	      0.90224518	     -0.00000000	     17.36866894	      0.00000000
      7.52700000	      0.00000000	      0.00000000	      0.00000000	      0.00000000	      0.00000000	      0.00000000	      0.00000000	      0.00000000	      0.00000000	    -28.77689030	   1991.99450768	     69.96581438	      2.07409372	      0.00000000	      0.90206694	     -0.00000000	     17.30648427	      0.00000000
      7.52800000	      0.00000000	      0.00000000	      0.00000000	      0.00000000	      0.00000000	      0.00000000	      0.00000000	      0.00000000	      0.00000000	    -22.48458539	   1986.62283767	     70.22970734	      2.07142052	      0.00000000	      0.90190214	     -0.00000000	     17.23459094	      0.00000000
      7.52900000	      0.00000000	      0.00000000	      0.00000000	      0.00000000	      0.00000000	      0.00000000	      0.00000000	      0.00000000	      0.00000000	    -16.19228048	   1981.25116766	     70.49360031	      2.06874732	      0.00000000	      0.90173735	     -0.00000000	     17.16269760	      0.00000000
      7.53000000	      0.00000000	      0.00000000	      0.00000000	      0.00000000	      0.00000000	      0.00000000	      0.00000000	      0.00000000	      0.00000000	     -9.89997558	   1975.87949765	     70.75749328	      2.06607412	      0.00000000	      0.90157255	     -0.00000000	     17.09080427	      0.00000000
      7.53100000	      0.00000000	      0.00000000	      0.00000000	      0.00000000	      0.00000000	      0.00000000	      0.00000000	      0.00000000	      0.00000000	     -3.58423474	   1968.93712117	     70.80182496	      2.06339802	      0.00000000	      0.90143094	     -0.00000000	     17.00467474	      0.00000000
      7.53200000	      0.00000000	      0.00000000	      0.00000000	      0.00000000	      0.00000000	      0.00000000	      0.00000000	      0.00000000	      0.00000000	      2.73150609	   1961.99474468	     70.84615664	      2.06072193	      0.00000000	      0.90128932	     -0.00000000	     16.91854522	      0.00000000
      7.53300000	      0.00000000	      0.00000000	      0.00000000	      0.00000000	      0.00000000	      0.00000000	      0.00000000	      0.00000000	      0.00000000	      9.04724693	   1955.05236820	     70.89048833	      2.05804583	      0.00000000	      0.90114771	     -0.00000000	     16.83241569	      0.00000000
      7.53400000	      0.00000000	      0.00000000	      0.00000000	      0.00000000	      0.00000000	      0.00000000	      0.00000000	      0.00000000	      0.00000000	     15.35724192	   1947.08142556	     70.78504871	      2.05536103	      0.00000000	      0.90102321	     -0.00000000	     16.73708576	      0.00000000
      7.53500000	      0.00000000	      0.00000000	      0.00000000	      0.00000000	      0.00000000	      0.00000000	      0.00000000	      0.00000000	      0.00000000	     21.66436401	   1938.59619984	     70.60472346	      2.05267189	      0.00000000	      0.90090727	     -0.00000000	     16.63715564	      0.00000000
